<?xml version="1.0" encoding="UTF-8" standalone="no"?>
<!-- Created with Inkscape (http://www.inkscape.org/) -->

<svg
   xmlns:dc="http://purl.org/dc/elements/1.1/"
   xmlns:cc="http://creativecommons.org/ns#"
   xmlns:rdf="http://www.w3.org/1999/02/22-rdf-syntax-ns#"
   xmlns:svg="http://www.w3.org/2000/svg"
   xmlns="http://www.w3.org/2000/svg"
   xmlns:sodipodi="http://sodipodi.sourceforge.net/DTD/sodipodi-0.dtd"
   xmlns:inkscape="http://www.inkscape.org/namespaces/inkscape"
   width="210mm"
   height="297mm"
   viewBox="0 0 744.09448819 1052.3622047"
   id="svg2"
   version="1.1"
   inkscape:version="0.91 r"
   enable-background="new"
   sodipodi:docname="array.svg">
  <sodipodi:namedview
     id="base"
     pagecolor="#ffffff"
     bordercolor="#666666"
     borderopacity="1.0"
     inkscape:pageopacity="0.0"
     inkscape:pageshadow="2"
     inkscape:zoom="1.0927796"
     inkscape:cx="351.19784"
     inkscape:cy="481.86243"
     inkscape:document-units="px"
     inkscape:current-layer="layer1"
     showgrid="false"
     showguides="true"
     inkscape:guide-bbox="true"
     inkscape:window-width="1301"
     inkscape:window-height="744"
     inkscape:window-x="65"
     inkscape:window-y="24"
     inkscape:window-maximized="1" />
  <defs
     id="defs4">
    <marker
       inkscape:isstock="true"
       style="overflow:visible;"
       id="marker6181"
       refX="0.0"
       refY="0.0"
       orient="auto"
       inkscape:stockid="Arrow1Lend">
      <path
         transform="scale(0.8) rotate(180) translate(12.5,0)"
         style="fill-rule:evenodd;stroke:#000000;stroke-width:1pt;stroke-opacity:1;fill:#000000;fill-opacity:1"
         d="M 0.0,0.0 L 5.0,-5.0 L -12.5,0.0 L 5.0,5.0 L 0.0,0.0 z "
         id="path6183" />
    </marker>
    <marker
       inkscape:isstock="true"
       style="overflow:visible;"
       id="Arrow1Lend"
       refX="0.0"
       refY="0.0"
       orient="auto"
       inkscape:stockid="Arrow1Lend">
      <path
         transform="scale(0.8) rotate(180) translate(12.5,0)"
         style="fill-rule:evenodd;stroke:#000000;stroke-width:1pt;stroke-opacity:1;fill:#000000;fill-opacity:1"
         d="M 0.0,0.0 L 5.0,-5.0 L -12.5,0.0 L 5.0,5.0 L 0.0,0.0 z "
         id="path4365" />
    </marker>
    <marker
       inkscape:isstock="true"
       style="overflow:visible"
       id="marker5301"
       refX="0.0"
       refY="0.0"
       orient="auto"
       inkscape:stockid="StopL">
      <path
         transform="scale(0.8)"
         style="fill:#000000;fill-opacity:1;fill-rule:evenodd;stroke:#000000;stroke-width:1pt;stroke-opacity:1"
         d="M 0.0,5.65 L 0.0,-5.65"
         id="path5303" />
    </marker>
    <marker
       inkscape:isstock="true"
       style="overflow:visible"
       id="marker5283"
       refX="0.0"
       refY="0.0"
       orient="auto"
       inkscape:stockid="StopL">
      <path
         transform="scale(0.8)"
         style="fill:#000000;fill-opacity:1;fill-rule:evenodd;stroke:#000000;stroke-width:1pt;stroke-opacity:1"
         d="M 0.0,5.65 L 0.0,-5.65"
         id="path5285" />
    </marker>
    <marker
       inkscape:isstock="true"
       style="overflow:visible"
       id="marker5265"
       refX="0.0"
       refY="0.0"
       orient="auto"
       inkscape:stockid="StopL">
      <path
         transform="scale(0.8)"
         style="fill:#000000;fill-opacity:1;fill-rule:evenodd;stroke:#000000;stroke-width:1pt;stroke-opacity:1"
         d="M 0.0,5.65 L 0.0,-5.65"
         id="path5267" />
    </marker>
    <marker
       inkscape:isstock="true"
       style="overflow:visible"
       id="StopL"
       refX="0.0"
       refY="0.0"
       orient="auto"
       inkscape:stockid="StopL">
      <path
         transform="scale(0.8)"
         style="fill:none;fill-opacity:0.75;fill-rule:evenodd;stroke:#000000;stroke-width:1pt;stroke-opacity:1"
         d="M 0.0,5.65 L 0.0,-5.65"
         id="path4531" />
    </marker>
    <marker
       inkscape:isstock="true"
       style="overflow:visible"
       id="DiamondLstart"
       refX="0.0"
       refY="0.0"
       orient="auto"
       inkscape:stockid="DiamondLstart">
      <path
         transform="scale(0.8) translate(7,0)"
         style="fill-rule:evenodd;stroke:#000000;stroke-width:1pt;stroke-opacity:1;fill:#000000;fill-opacity:1"
         d="M 0,-7.0710768 L -7.0710894,0 L 0,7.0710589 L 7.0710462,0 L 0,-7.0710768 z "
         id="path4450" />
    </marker>
    <marker
       inkscape:collect="always"
       inkscape:stockid="StopL"
       orient="auto"
       refY="0.0"
       refX="0.0"
       id="marker7320"
       style="overflow:visible"
       inkscape:isstock="true">
      <path
         id="path7322"
         d="M 0.0,5.65 L 0.0,-5.65"
         style="fill:none;fill-opacity:0.75;fill-rule:evenodd;stroke:#000000;stroke-width:1pt;stroke-opacity:1"
         transform="scale(0.8)" />
    </marker>
    <marker
       inkscape:collect="always"
       inkscape:stockid="StopL"
       orient="auto"
       refY="0.0"
       refX="0.0"
       id="marker7244"
       style="overflow:visible"
       inkscape:isstock="true">
      <path
         id="path7246"
         d="M 0.0,5.65 L 0.0,-5.65"
         style="fill:none;fill-opacity:0.75;fill-rule:evenodd;stroke:#000000;stroke-width:1pt;stroke-opacity:1"
         transform="scale(0.8)" />
    </marker>
    <marker
       inkscape:isstock="true"
       style="overflow:visible"
       id="Arrow1Lstart"
       refX="0.0"
       refY="0.0"
       orient="auto"
       inkscape:stockid="Arrow1Lstart">
      <path
         transform="scale(0.8) translate(12.5,0)"
         style="fill-rule:evenodd;stroke:#000000;stroke-width:1pt;stroke-opacity:1;fill:#000000;fill-opacity:1"
         d="M 0.0,0.0 L 5.0,-5.0 L -12.5,0.0 L 5.0,5.0 L 0.0,0.0 z "
         id="path4157" />
    </marker>
    <marker
       inkscape:isstock="true"
       style="overflow:visible"
       id="SquareL"
       refX="0.0"
       refY="0.0"
       orient="auto"
       inkscape:stockid="SquareL">
      <path
         transform="scale(0.8)"
         style="fill-rule:evenodd;stroke:#000000;stroke-width:1pt;stroke-opacity:1;fill:#000000;fill-opacity:1"
         d="M -5.0,-5.0 L -5.0,5.0 L 5.0,5.0 L 5.0,-5.0 L -5.0,-5.0 z "
         id="path4227" />
    </marker>
    <marker
       inkscape:isstock="true"
       style="overflow:visible"
       id="DotM"
       refX="0.0"
       refY="0.0"
       orient="auto"
       inkscape:stockid="DotM">
      <path
         transform="scale(0.4) translate(7.4, 1)"
         style="fill-rule:evenodd;stroke:#000000;stroke-width:1pt;stroke-opacity:1;fill:#000000;fill-opacity:1"
         d="M -2.5,-1.0 C -2.5,1.7600000 -4.7400000,4.0 -7.5,4.0 C -10.260000,4.0 -12.5,1.7600000 -12.5,-1.0 C -12.5,-3.7600000 -10.260000,-6.0 -7.5,-6.0 C -4.7400000,-6.0 -2.5,-3.7600000 -2.5,-1.0 z "
         id="path4221" />
    </marker>
    <marker
       inkscape:isstock="true"
       style="overflow:visible"
       id="marker4945"
       refX="0.0"
       refY="0.0"
       orient="auto"
       inkscape:stockid="StopL">
      <path
         transform="scale(0.8)"
         style="fill:none;fill-opacity:0.75;fill-rule:evenodd;stroke:#000000;stroke-width:1pt;stroke-opacity:1"
         d="M 0.0,5.65 L 0.0,-5.65"
         id="path4947" />
    </marker>
    <marker
       inkscape:stockid="StopL"
       orient="auto"
       refY="0.0"
       refX="0.0"
       id="marker4539"
       style="overflow:visible"
       inkscape:isstock="true">
      <path
         id="path4541"
         d="M 0.0,5.65 L 0.0,-5.65"
         style="fill:none;fill-opacity:0.75;fill-rule:evenodd;stroke:#000000;stroke-width:1pt;stroke-opacity:1"
         transform="scale(0.8)" />
    </marker>
    <marker
       inkscape:isstock="true"
       style="overflow:visible"
       id="marker5775-6"
       refX="0"
       refY="0"
       orient="auto"
       inkscape:stockid="StopL">
      <path
         transform="scale(0.8,0.8)"
         style="fill:none;fill-opacity:0.75;fill-rule:evenodd;stroke:#000000;stroke-width:1pt;stroke-opacity:1"
         d="M 0,5.65 0,-5.65"
         id="path5777-7"
         inkscape:connector-curvature="0" />
    </marker>
    <marker
       inkscape:isstock="true"
       style="overflow:visible"
       id="marker5699-5"
       refX="0"
       refY="0"
       orient="auto"
       inkscape:stockid="StopL">
      <path
         transform="scale(0.8,0.8)"
         style="fill:none;fill-opacity:0.75;fill-rule:evenodd;stroke:#000000;stroke-width:1pt;stroke-opacity:1"
         d="M 0,5.65 0,-5.65"
         id="path5701-3"
         inkscape:connector-curvature="0" />
    </marker>
    <marker
       inkscape:stockid="StopL"
       orient="auto"
       refY="0"
       refX="0"
       id="marker7244-6"
       style="overflow:visible"
       inkscape:isstock="true">
      <path
         id="path7246-2"
         d="M 0,5.65 0,-5.65"
         style="fill:none;fill-opacity:0.75;fill-rule:evenodd;stroke:#000000;stroke-width:1pt;stroke-opacity:1"
         transform="scale(0.8,0.8)"
         inkscape:connector-curvature="0" />
    </marker>
    <marker
       inkscape:stockid="StopL"
       orient="auto"
       refY="0"
       refX="0"
       id="marker7320-9"
       style="overflow:visible"
       inkscape:isstock="true">
      <path
         id="path7322-1"
         d="M 0,5.65 0,-5.65"
         style="fill:none;fill-opacity:0.75;fill-rule:evenodd;stroke:#000000;stroke-width:1pt;stroke-opacity:1"
         transform="scale(0.8,0.8)"
         inkscape:connector-curvature="0" />
    </marker>
    <marker
       inkscape:stockid="StopL"
       orient="auto"
       refY="0"
       refX="0"
       id="marker7244-7"
       style="overflow:visible"
       inkscape:isstock="true">
      <path
         id="path7246-0"
         d="M 0,5.65 0,-5.65"
         style="fill:none;fill-opacity:0.75;fill-rule:evenodd;stroke:#000000;stroke-width:1pt;stroke-opacity:1"
         transform="scale(0.8,0.8)"
         inkscape:connector-curvature="0" />
    </marker>
    <marker
       inkscape:stockid="StopL"
       orient="auto"
       refY="0"
       refX="0"
       id="marker7320-93"
       style="overflow:visible"
       inkscape:isstock="true">
      <path
         id="path7322-6"
         d="M 0,5.65 0,-5.65"
         style="fill:none;fill-opacity:0.75;fill-rule:evenodd;stroke:#000000;stroke-width:1pt;stroke-opacity:1"
         transform="scale(0.8,0.8)"
         inkscape:connector-curvature="0" />
    </marker>
    <marker
       inkscape:stockid="StopL"
       orient="auto"
       refY="0"
       refX="0"
       id="marker7320-3"
       style="overflow:visible"
       inkscape:isstock="true">
      <path
         id="path7322-67"
         d="M 0,5.65 0,-5.65"
         style="fill:none;fill-opacity:0.75;fill-rule:evenodd;stroke:#000000;stroke-width:1pt;stroke-opacity:1"
         transform="scale(0.8,0.8)"
         inkscape:connector-curvature="0" />
    </marker>
    <marker
       inkscape:stockid="StopL"
       orient="auto"
       refY="0"
       refX="0"
       id="marker7244-5"
       style="overflow:visible"
       inkscape:isstock="true">
      <path
         id="path7246-3"
         d="M 0,5.65 0,-5.65"
         style="fill:none;fill-opacity:0.75;fill-rule:evenodd;stroke:#000000;stroke-width:1pt;stroke-opacity:1"
         transform="scale(0.8,0.8)"
         inkscape:connector-curvature="0" />
    </marker>
    <marker
       inkscape:isstock="true"
       style="overflow:visible"
       id="marker5301-2"
       refX="0"
       refY="0"
       orient="auto"
       inkscape:stockid="StopL">
      <path
         transform="scale(0.8,0.8)"
         style="fill:none;fill-opacity:0.75;fill-rule:evenodd;stroke:#000000;stroke-width:1pt;stroke-opacity:1"
         d="M 0,5.65 0,-5.65"
         id="path5303-9"
         inkscape:connector-curvature="0" />
    </marker>
    <marker
       inkscape:isstock="true"
       style="overflow:visible"
       id="marker5265-1"
       refX="0"
       refY="0"
       orient="auto"
       inkscape:stockid="StopL">
      <path
         transform="scale(0.8,0.8)"
         style="fill:none;fill-opacity:0.75;fill-rule:evenodd;stroke:#000000;stroke-width:1pt;stroke-opacity:1"
         d="M 0,5.65 0,-5.65"
         id="path5267-2"
         inkscape:connector-curvature="0" />
    </marker>
    <marker
       inkscape:isstock="true"
       style="overflow:visible"
       id="marker5283-7"
       refX="0"
       refY="0"
       orient="auto"
       inkscape:stockid="StopL">
      <path
         transform="scale(0.8,0.8)"
         style="fill:none;fill-opacity:0.75;fill-rule:evenodd;stroke:#000000;stroke-width:1pt;stroke-opacity:1"
         d="M 0,5.65 0,-5.65"
         id="path5285-0"
         inkscape:connector-curvature="0" />
    </marker>
    <marker
       inkscape:collect="always"
       inkscape:stockid="StopL"
       orient="auto"
       refY="0"
       refX="0"
       id="marker7320-936"
       style="overflow:visible"
       inkscape:isstock="true">
      <path
         id="path7322-0"
         d="M 0,5.65 0,-5.65"
         style="fill:none;fill-opacity:0.75;fill-rule:evenodd;stroke:#000000;stroke-width:1pt;stroke-opacity:1"
         transform="scale(0.8,0.8)"
         inkscape:connector-curvature="0" />
    </marker>
    <marker
       inkscape:isstock="true"
       style="overflow:visible"
       id="StopL-6"
       refX="0"
       refY="0"
       orient="auto"
       inkscape:stockid="StopL">
      <path
         transform="scale(0.8,0.8)"
         style="fill:none;fill-opacity:0.75;fill-rule:evenodd;stroke:#000000;stroke-width:1pt;stroke-opacity:1"
         d="M 0,5.65 0,-5.65"
         id="path4531-2"
         inkscape:connector-curvature="0" />
    </marker>
    <marker
       inkscape:collect="always"
       inkscape:stockid="StopL"
       orient="auto"
       refY="0"
       refX="0"
       id="marker7244-61"
       style="overflow:visible"
       inkscape:isstock="true">
      <path
         id="path7246-8"
         d="M 0,5.65 0,-5.65"
         style="fill:none;fill-opacity:0.75;fill-rule:evenodd;stroke:#000000;stroke-width:1pt;stroke-opacity:1"
         transform="scale(0.8,0.8)"
         inkscape:connector-curvature="0" />
    </marker>
    <marker
       inkscape:isstock="true"
       style="overflow:visible"
       id="Arrow1Lend-0"
       refX="0"
       refY="0"
       orient="auto"
       inkscape:stockid="Arrow1Lend">
      <path
         transform="matrix(-0.8,0,0,-0.8,-10,0)"
         style="fill:#000000;fill-opacity:1;fill-rule:evenodd;stroke:#000000;stroke-width:1pt;stroke-opacity:1"
         d="M 0,0 5,-5 -12.5,0 5,5 0,0 Z"
         id="path4365-2"
         inkscape:connector-curvature="0" />
    </marker>
  </defs>
  <metadata
     id="metadata7">
    <rdf:RDF>
      <cc:Work
         rdf:about="">
        <dc:format>image/svg+xml</dc:format>
        <dc:type
           rdf:resource="http://purl.org/dc/dcmitype/StillImage" />
        <dc:title />
      </cc:Work>
    </rdf:RDF>
  </metadata>
  <g
     style=""
     id="layer1"
     inkscape:groupmode="layer"
     inkscape:label="Layer 1">
    <path
       sodipodi:nodetypes="ccc"
       inkscape:connector-curvature="0"
       id="path9459"
       d="m 137.30003,588.93351 104.00762,0 104.56383,0"
       style="fill:none;fill-rule:evenodd;stroke:#000000;stroke-width:2;stroke-linecap:butt;stroke-linejoin:miter;stroke-miterlimit:4;stroke-dasharray:none;stroke-opacity:1;marker-start:url(#marker7320);marker-mid:url(#StopL);marker-end:url(#marker7244)"
       inkscape:export-xdpi="90"
       inkscape:export-ydpi="90" />
    <g
       id="g8070"
       inkscape:export-xdpi="90"
       inkscape:export-ydpi="90">
      <path
         style="color:#000000;font-style:normal;font-variant:normal;font-weight:normal;font-stretch:normal;font-size:medium;line-height:normal;font-family:sans-serif;text-indent:0;text-align:start;text-decoration:none;text-decoration-line:none;text-decoration-style:solid;text-decoration-color:#000000;letter-spacing:normal;word-spacing:normal;text-transform:none;direction:ltr;block-progression:tb;writing-mode:lr-tb;baseline-shift:baseline;text-anchor:start;white-space:normal;clip-rule:nonzero;display:inline;overflow:visible;visibility:visible;opacity:1;isolation:auto;mix-blend-mode:normal;color-interpolation:sRGB;color-interpolation-filters:linearRGB;solid-color:#000000;solid-opacity:1;fill:#000000;fill-opacity:1;fill-rule:evenodd;stroke:none;stroke-width:2;stroke-linecap:butt;stroke-linejoin:miter;stroke-miterlimit:4;stroke-dasharray:none;stroke-dashoffset:0;stroke-opacity:1;color-rendering:auto;image-rendering:auto;shape-rendering:auto;text-rendering:auto;enable-background:accumulate"
         d="m 96.314453,656.95508 0,2 c 48.423827,0 96.847657,0 145.271487,0 l 143.4414,0 0,-2 c -96.23763,0 -192.47526,0 -288.712887,0 z"
         id="path5246-6"
         inkscape:connector-curvature="0"
         sodipodi:nodetypes="cccccc" />
      <path
         id="path8076"
         d="m 96.31401,666.99515 0,-18.08"
         style="fill:#000000;fill-opacity:1;fill-rule:evenodd;stroke:#000000;stroke-width:1.6pt;stroke-opacity:1"
         inkscape:connector-curvature="0" />
      <path
         id="path8078"
         d="m 241.58576,666.99515 0,-18.08"
         style="fill:#000000;fill-opacity:1;fill-rule:evenodd;stroke:#000000;stroke-width:1.6pt;stroke-opacity:1"
         inkscape:connector-curvature="0" />
      <path
         id="path8080"
         d="m 241.58576,666.99515 0,-18.08"
         style="fill:#000000;fill-opacity:1;fill-rule:evenodd;stroke:#000000;stroke-width:1.6pt;stroke-opacity:1"
         inkscape:connector-curvature="0" />
      <path
         id="path8082"
         d="m 385.0273,666.99515 0,-18.08"
         style="fill:#000000;fill-opacity:1;fill-rule:evenodd;stroke:#000000;stroke-width:1.6pt;stroke-opacity:1"
         inkscape:connector-curvature="0" />
      <text
         xml:space="preserve"
         style="font-style:normal;font-weight:normal;font-size:40.04926682px;line-height:125%;font-family:sans-serif;letter-spacing:0px;word-spacing:0px;fill:#ff0000;fill-opacity:1;stroke:none;stroke-width:1px;stroke-linecap:butt;stroke-linejoin:miter;stroke-opacity:1"
         x="117.99621"
         y="821.24579"
         id="text8092"
         sodipodi:linespacing="125%"
         transform="scale(1.2317932,0.81182459)"><tspan
           sodipodi:role="line"
           id="tspan8094"
           x="117.99621"
           y="821.24579"
           style="font-style:normal;font-variant:normal;font-weight:normal;font-stretch:normal;font-family:'Arial Unicode MS';-inkscape-font-specification:'Arial Unicode MS'">x</tspan></text>
      <text
         xml:space="preserve"
         style="font-style:normal;font-weight:normal;font-size:40.04926682px;line-height:125%;font-family:sans-serif;letter-spacing:0px;word-spacing:0px;fill:#ff0000;fill-opacity:1;stroke:none;stroke-width:1px;stroke-linecap:butt;stroke-linejoin:miter;stroke-opacity:1"
         x="226.90192"
         y="735.97278"
         id="text8092-7"
         sodipodi:linespacing="125%"
         transform="scale(1.2317932,0.81182459)"><tspan
           sodipodi:role="line"
           id="tspan8094-5"
           x="226.90192"
           y="735.97278"
           style="font-style:normal;font-variant:normal;font-weight:normal;font-stretch:normal;font-family:'Arial Unicode MS';-inkscape-font-specification:'Arial Unicode MS'">x</tspan></text>
    </g>
    <path
       inkscape:connector-curvature="0"
       id="path5447"
       d="m 241.7037,524.35091 0,192.62803"
       style="fill:none;fill-rule:evenodd;stroke:#000000;stroke-width:1;stroke-linecap:butt;stroke-linejoin:miter;stroke-miterlimit:4;stroke-dasharray:1, 1;stroke-dashoffset:0;stroke-opacity:1"
       inkscape:export-xdpi="90"
       inkscape:export-ydpi="90" />
    <path
       sodipodi:nodetypes="ccc"
       inkscape:connector-curvature="0"
       id="path9459-7"
       d="m 453.46625,589.16229 104.00762,0 104.56383,0"
       style="fill:none;fill-rule:evenodd;stroke:#000000;stroke-width:2;stroke-linecap:butt;stroke-linejoin:miter;stroke-miterlimit:4;stroke-dasharray:none;stroke-opacity:1;marker-start:url(#marker7320-936);marker-mid:url(#StopL-6);marker-end:url(#marker7244-61)"
       inkscape:export-xdpi="90"
       inkscape:export-ydpi="90" />
    <path
       sodipodi:nodetypes="ccc"
       inkscape:connector-curvature="0"
       id="path5246-6-9"
       d="m 412.48023,658.18393 145.27175,0 143.44154,0"
       style="fill:none;fill-rule:evenodd;stroke:#000000;stroke-width:2;stroke-linecap:butt;stroke-linejoin:miter;stroke-miterlimit:4;stroke-dasharray:none;stroke-opacity:1;marker-start:url(#marker5301-2);marker-mid:url(#marker5265-1);marker-end:url(#marker5283-7)"
       inkscape:export-xdpi="90"
       inkscape:export-ydpi="90" />
    <path
       inkscape:connector-curvature="0"
       id="path5447-2"
       d="m 557.86992,524.57969 0,192.62803"
       style="fill:none;fill-rule:evenodd;stroke:#000000;stroke-width:1;stroke-linecap:butt;stroke-linejoin:miter;stroke-miterlimit:4;stroke-dasharray:1, 1;stroke-dashoffset:0;stroke-opacity:1"
       inkscape:export-xdpi="90"
       inkscape:export-ydpi="90" />
    <path
       sodipodi:nodetypes="ccc"
       inkscape:transform-center-y="-5.4905854"
       inkscape:transform-center-x="10.066073"
       inkscape:connector-curvature="0"
       id="path6082"
       d="m 114.84475,653.83721 c 45.22172,-8.81006 105.02196,-0.73974 129.58724,-33.46778 39.57126,-24.52844 61.24464,-15.81794 91.86637,-23.72582"
       style="fill:none;fill-rule:evenodd;stroke:#000000;stroke-width:1;stroke-linecap:butt;stroke-linejoin:miter;stroke-miterlimit:4;stroke-dasharray:3, 3;stroke-dashoffset:0;stroke-opacity:1;marker-end:url(#Arrow1Lend)"
       inkscape:export-xdpi="90"
       inkscape:export-ydpi="90" />
    <path
       sodipodi:nodetypes="ccc"
       inkscape:connector-curvature="0"
       id="path6179"
       d="m 459.37898,595.27097 c 59.36605,1.68169 70.85287,14.92043 97.75395,24.43849 49.71958,25.14579 88.31242,28.0381 127.36005,31.84001"
       style="fill:none;fill-rule:evenodd;stroke:#000000;stroke-width:1;stroke-linecap:butt;stroke-linejoin:miter;stroke-miterlimit:4;stroke-dasharray:3, 3;stroke-dashoffset:0;stroke-opacity:1;marker-end:url(#marker6181)"
       inkscape:export-xdpi="90"
       inkscape:export-ydpi="90" />
    <text
       sodipodi:linespacing="125%"
       id="text6189"
       y="568.83685"
       x="138.63728"
       style="font-style:normal;font-weight:normal;font-size:40px;line-height:125%;font-family:sans-serif;letter-spacing:0px;word-spacing:0px;fill:#000000;fill-opacity:1;stroke:none;stroke-width:1px;stroke-linecap:butt;stroke-linejoin:miter;stroke-opacity:1"
       xml:space="preserve"
       inkscape:export-xdpi="90"
       inkscape:export-ydpi="90"><tspan
         y="568.83685"
         x="138.63728"
         id="tspan6191"
         sodipodi:role="line">1</tspan></text>
    <text
       sodipodi:linespacing="125%"
       id="text6193"
       y="568.83685"
       x="329.10974"
       style="font-style:normal;font-weight:normal;font-size:40px;line-height:125%;font-family:sans-serif;letter-spacing:0px;word-spacing:0px;fill:#000000;fill-opacity:1;stroke:none;stroke-width:1px;stroke-linecap:butt;stroke-linejoin:miter;stroke-opacity:1"
       xml:space="preserve"
       inkscape:export-xdpi="90"
       inkscape:export-ydpi="90"><tspan
         y="568.83685"
         x="329.10974"
         id="tspan6195"
         sodipodi:role="line">m</tspan></text>
    <text
       sodipodi:linespacing="125%"
       id="text6197"
       y="696.89862"
       x="86.085228"
       style="font-style:normal;font-weight:normal;font-size:40px;line-height:125%;font-family:sans-serif;letter-spacing:0px;word-spacing:0px;fill:#000000;fill-opacity:1;stroke:none;stroke-width:1px;stroke-linecap:butt;stroke-linejoin:miter;stroke-opacity:1"
       xml:space="preserve"
       inkscape:export-xdpi="90"
       inkscape:export-ydpi="90"><tspan
         y="696.89862"
         x="86.085228"
         id="tspan6199"
         sodipodi:role="line">1</tspan></text>
    <text
       sodipodi:linespacing="125%"
       id="text6201"
       y="696.89862"
       x="373.83157"
       style="font-style:normal;font-weight:normal;font-size:40px;line-height:125%;font-family:sans-serif;letter-spacing:0px;word-spacing:0px;fill:#000000;fill-opacity:1;stroke:none;stroke-width:1px;stroke-linecap:butt;stroke-linejoin:miter;stroke-opacity:1"
       xml:space="preserve"
       inkscape:export-xdpi="90"
       inkscape:export-ydpi="90"><tspan
         y="696.89862"
         x="373.83157"
         id="tspan6203"
         sodipodi:role="line">n</tspan></text>
    <g
       transform="matrix(0.28219041,0,0,0.36143594,-77.195329,348.96466)"
       id="g6830"
       inkscape:export-xdpi="90"
       inkscape:export-ydpi="90">
      <g
         style="font-style:normal;font-variant:normal;font-weight:normal;font-stretch:normal;letter-spacing:normal;word-spacing:normal;text-anchor:start;fill:none;fill-opacity:1;fill-rule:evenodd;stroke:#000000;stroke-linecap:butt;stroke-linejoin:miter;stroke-miterlimit:10.43299961;stroke-dasharray:none;stroke-dashoffset:0;stroke-opacity:1"
         id="content"
         transform="matrix(1.0629921,0,0,-1.0629921,-186.02362,789.27165)"
         xml:space="preserve"
         stroke-miterlimit="10.433"
         font-style="normal"
         font-variant="normal"
         font-weight="normal"
         font-stretch="normal"
         font-size-adjust="none"
         letter-spacing="normal"
         word-spacing="normal"><polygon
           style="fill:#000000;stroke-width:0"
           points="1154.4,303.08 1168.5,303.08 1168.5,305.42 1156.7,305.42 1156.7,392.72 1154.4,392.72 "
           id="polygon6833" /><path
           style="fill:#000000;stroke-width:0"
           inkscape:connector-curvature="0"
           d="m 1179.8,372.06 0,-0.07 0,-0.08 -0.1,-0.07 0,-0.08 0,-0.16 0,-0.16 -0.1,-0.16 0,-0.16 -0.1,-0.16 0,-0.16 0,-0.08 0,-0.07 0,-0.07 -0.1,-0.07 0,-0.07 0,-0.07 0,-0.06 0,-0.06 0,-0.05 0,-0.06 0,-0.04 0,-0.05 -0.1,-0.04 0,-0.03 0,-0.04 0,-0.02 c 0,-0.89 0.7,-1.35 1.5,-1.35 0.6,0 1.5,0.39 1.8,1.39 0.1,0.11 0.7,2.44 1,3.69 l 1.1,4.49 c 0.3,1.09 0.6,2.18 0.8,3.34 0.2,0.84 0.6,2.28 0.7,2.48 0.7,1.55 3.4,6.08 8.1,6.08 2.2,0 2.7,-1.84 2.7,-3.48 0,-1.25 -0.4,-2.64 -0.8,-4.14 l -1.4,-5.78 -1,-3.78 c -0.2,-1 -0.6,-2.69 -0.6,-2.94 0,-0.89 0.7,-1.35 1.4,-1.35 1.6,0 1.9,1.25 2.3,2.85 0.7,2.78 2.5,10.06 3,12 0.1,0.65 2.8,6.62 8.2,6.62 2.1,0 2.7,-1.68 2.7,-3.48 0,-2.85 -2.1,-8.52 -3.1,-11.16 -0.5,-1.2 -0.7,-1.75 -0.7,-2.75 0,-2.33 1.8,-4.08 4.1,-4.08 4.7,0 6.6,7.27 6.6,7.68 0,0.5 -0.5,0.5 -0.6,0.5 -0.5,0 -0.5,-0.16 -0.8,-0.91 -0.7,-2.64 -2.3,-6.17 -5.1,-6.17 -0.8,0 -1.2,0.5 -1.2,1.64 0,1.25 0.5,2.45 0.9,3.55 1,2.57 3.1,8.1 3.1,10.95 0,3.23 -2,5.33 -5.8,5.33 -3.7,0 -6.2,-2.19 -8.1,-4.83 0,0.65 -0.2,2.34 -1.6,3.53 -1.2,1.05 -2.8,1.3 -4.1,1.3 -4.5,0 -6.9,-3.19 -7.7,-4.33 -0.3,2.84 -2.4,4.33 -4.6,4.33 -2.3,0 -3.3,-1.94 -3.7,-2.83 -0.9,-1.75 -1.6,-4.69 -1.6,-4.85 0,-0.5 0.5,-0.5 0.6,-0.5 0.5,0 0.6,0.07 0.9,1.16 0.8,3.53 1.8,5.92 3.6,5.92 0.8,0 1.6,-0.39 1.6,-2.28 0,-1.05 -0.2,-1.61 -0.8,-4.19 z"
           id="path6835" /><path
           style="fill:#000000;stroke-width:0"
           inkscape:connector-curvature="0"
           d="m 1250.5,380.57 13.9,0 c 0.7,0 1.6,0 1.6,1 0,1 -0.9,1 -1.6,1 l -13.9,0 0,13.96 c 0,0.68 0,1.64 -1,1.64 -1,0 -1,-0.96 -1,-1.64 l 0,-13.96 -13.9,0 c -0.7,0 -1.7,0 -1.7,-1 0,-1 1,-1 1.7,-1 l 13.9,0 0,-13.93 c 0,-0.71 0,-1.66 1,-1.66 1,0 1,0.95 1,1.66 z"
           id="path6837" /><path
           style="fill:#000000;stroke-width:0"
           inkscape:connector-curvature="0"
           d="m 1294.6,401.01 0,0.06 0,0.05 0,0.05 0,0.05 0,0.05 0,0.05 0,0.04 0,0.05 0,0.04 0,0.04 0,0.04 0,0.04 0,0.04 -0.1,0.04 0,0.03 0,0.04 0,0.06 0,0.06 0,0.05 0,0.05 0,0.05 0,0.04 -0.1,0.04 0,0.04 0,0.03 0,0.02 -0.1,0.03 0,0.02 -0.1,0.02 0,0.01 0,0.01 0,0 -0.1,0.01 0,0.01 0,0 -0.1,0.01 0,0 0,0.01 -0.1,0 0,0 0,0.01 -0.1,0 0,0 0,0 -0.1,0.01 0,0 -0.1,0 0,0 -0.1,0 0,0 -0.1,0 c -3.1,-3.19 -7.5,-3.19 -9,-3.19 l 0,-1.55 c 1,0 3.9,0 6.5,1.3 l 0,-25.81 c 0,-1.8 -0.2,-2.39 -4.7,-2.39 l -1.5,0 0,-1.55 c 1.7,0.16 6,0.16 8,0.16 2,0 6.3,0 8.1,-0.16 l 0,1.55 -1.6,0 c -4.5,0 -4.6,0.54 -4.6,2.39 z"
           id="path6839" /><polyline
           style="fill:#000000;fill-rule:nonzero;stroke-width:0"
           points="1175,347 1304.6,347 1304.6,349.04 1175,349.04 "
           id="polyline6841" /><path
           style="fill:#000000;stroke-width:0"
           inkscape:connector-curvature="0"
           d="m 1234.1,305.04 5.2,5.13 c 7.8,6.87 10.8,9.56 10.8,14.54 0,5.69 -4.5,9.68 -10.6,9.68 -5.6,0 -9.3,-4.6 -9.3,-9.03 0,-2.79 2.5,-2.79 2.6,-2.79 0.9,0 2.6,0.6 2.6,2.64 0,1.3 -0.8,2.6 -2.6,2.6 -0.4,0 -0.5,0 -0.6,-0.05 1.1,3.24 3.8,5.08 6.7,5.08 4.5,0 6.7,-4.05 6.7,-8.13 0,-3.98 -2.5,-7.92 -5.3,-11.01 l -9.5,-10.66 c -0.6,-0.54 -0.6,-0.64 -0.6,-1.84 l 18.5,0 1.4,8.67 -1.3,0 c -0.2,-1.5 -0.6,-3.69 -1,-4.44 -0.4,-0.39 -3.7,-0.39 -4.8,-0.39 z"
           id="path6843" /><polygon
           style="fill:#000000;stroke-width:0"
           points="1323.5,305.42 1311.8,305.42 1311.8,303.08 1325.9,303.08 1325.9,392.72 1323.5,392.72 "
           id="polygon6845" /></g>    </g>
    <g
       id="g7042"
       transform="matrix(0.33947233,0,0,0.41252106,-144.86806,534.55804)"
       inkscape:export-xdpi="90"
       inkscape:export-ydpi="90">
      <g
         word-spacing="normal"
         letter-spacing="normal"
         font-size-adjust="none"
         font-stretch="normal"
         font-weight="normal"
         font-variant="normal"
         font-style="normal"
         stroke-miterlimit="10.433"
         xml:space="preserve"
         transform="matrix(1.0629921,0,0,-1.0629921,-186.02362,789.27165)"
         id="g7044"
         style="font-style:normal;font-variant:normal;font-weight:normal;font-stretch:normal;letter-spacing:normal;word-spacing:normal;text-anchor:start;fill:none;fill-opacity:1;fill-rule:evenodd;stroke:#000000;stroke-linecap:butt;stroke-linejoin:miter;stroke-miterlimit:10.43299961;stroke-dasharray:none;stroke-dashoffset:0;stroke-opacity:1"><polygon
           id="polygon7046"
           points="1161.2,392.72 1161.2,303.08 1175.3,303.08 1175.3,305.42 1163.6,305.42 1163.6,392.72 "
           style="fill:#000000;stroke-width:0" /><path
           id="path7048"
           d="m 1186.6,372.06 0,-0.07 0,-0.08 0,-0.07 0,-0.08 -0.1,-0.16 0,-0.16 0,-0.16 -0.1,-0.16 0,-0.16 -0.1,-0.16 0,-0.08 0,-0.07 0,-0.07 0,-0.07 0,-0.07 0,-0.07 -0.1,-0.06 0,-0.06 0,-0.05 0,-0.06 0,-0.04 0,-0.05 0,-0.04 0,-0.03 0,-0.04 0,-0.02 c 0,-0.89 0.7,-1.35 1.4,-1.35 0.6,0 1.5,0.39 1.9,1.39 0,0.11 0.6,2.44 0.9,3.69 l 1.1,4.49 c 0.3,1.09 0.6,2.18 0.8,3.34 0.3,0.84 0.7,2.28 0.7,2.48 0.8,1.55 3.4,6.08 8.1,6.08 2.3,0 2.7,-1.84 2.7,-3.48 0,-3.1 -2.4,-9.47 -3.2,-11.61 -0.5,-1.14 -0.5,-1.75 -0.5,-2.3 0,-2.33 1.7,-4.08 4.1,-4.08 4.6,0 6.5,7.27 6.5,7.68 0,0.5 -0.5,0.5 -0.6,0.5 -0.5,0 -0.5,-0.16 -0.8,-0.91 -1,-3.38 -2.6,-6.17 -5.1,-6.17 -0.8,0 -1.1,0.5 -1.1,1.64 0,1.25 0.4,2.45 0.9,3.55 0.9,2.64 3,8.1 3,10.95 0,3.34 -2.1,5.33 -5.7,5.33 -4.5,0 -7,-3.19 -7.8,-4.33 -0.3,2.8 -2.3,4.33 -4.6,4.33 -2.3,0 -3.2,-1.94 -3.7,-2.83 -0.8,-1.7 -1.5,-4.64 -1.5,-4.85 0,-0.5 0.5,-0.5 0.6,-0.5 0.5,0 0.5,0.07 0.8,1.16 0.9,3.53 1.9,5.92 3.7,5.92 1,0 1.5,-0.64 1.5,-2.28 0,-1.05 -0.1,-1.61 -0.8,-4.19 z"
           inkscape:connector-curvature="0"
           style="fill:#000000;stroke-width:0" /><path
           id="path7050"
           d="m 1243.7,380.57 13.9,0 c 0.6,0 1.6,0 1.6,1 0,1 -1,1 -1.6,1 l -13.9,0 0,13.96 c 0,0.68 0,1.64 -1,1.64 -1,0 -1,-0.96 -1,-1.64 l 0,-13.96 -14,0 c -0.7,0 -1.6,0 -1.6,-1 0,-1 0.9,-1 1.6,-1 l 14,0 0,-13.93 c 0,-0.71 0,-1.66 1,-1.66 1,0 1,0.95 1,1.66 z"
           inkscape:connector-curvature="0"
           style="fill:#000000;stroke-width:0" /><path
           id="path7052"
           d="m 1287.7,401.01 0,0.06 0,0.05 0,0.05 0,0.05 0,0.05 0,0.05 0,0.04 0,0.05 0,0.04 0,0.04 0,0.04 0,0.04 0,0.04 0,0.04 0,0.03 0,0.04 0,0.06 0,0.06 0,0.05 0,0.05 -0.1,0.05 0,0.04 0,0.04 0,0.04 -0.1,0.03 0,0.02 0,0.03 -0.1,0.02 0,0.02 0,0.01 -0.1,0.01 0,0 0,0.01 0,0.01 -0.1,0 0,0.01 0,0 -0.1,0.01 0,0 0,0 -0.1,0.01 0,0 0,0 -0.1,0 0,0.01 -0.1,0 0,0 -0.1,0 0,0 -0.1,0 0,0 c -3.1,-3.19 -7.5,-3.19 -9.1,-3.19 l 0,-1.55 c 1,0 3.9,0 6.5,1.3 l 0,-25.81 c 0,-1.8 -0.1,-2.39 -4.6,-2.39 l -1.6,0 0,-1.55 c 1.8,0.16 6.1,0.16 8.1,0.16 2,0 6.3,0 8,-0.16 l 0,1.55 -1.5,0 c -4.5,0 -4.7,0.54 -4.7,2.39 z"
           inkscape:connector-curvature="0"
           style="fill:#000000;stroke-width:0" /><polyline
           id="polyline7054"
           points="1182,347 1297.8,347 1297.8,349.04 1182,349.04 "
           style="fill:#000000;fill-rule:nonzero;stroke-width:0" /><path
           id="path7056"
           d="m 1234.1,305.04 5.2,5.13 c 7.8,6.87 10.8,9.56 10.8,14.54 0,5.69 -4.5,9.68 -10.6,9.68 -5.6,0 -9.3,-4.6 -9.3,-9.03 0,-2.79 2.5,-2.79 2.6,-2.79 0.9,0 2.6,0.6 2.6,2.64 0,1.3 -0.8,2.6 -2.6,2.6 -0.4,0 -0.5,0 -0.6,-0.05 1.1,3.24 3.8,5.08 6.7,5.08 4.5,0 6.7,-4.05 6.7,-8.13 0,-3.98 -2.5,-7.92 -5.3,-11.01 l -9.5,-10.66 c -0.6,-0.54 -0.6,-0.64 -0.6,-1.84 l 18.5,0 1.4,8.67 -1.3,0 c -0.2,-1.5 -0.6,-3.69 -1,-4.44 -0.4,-0.39 -3.7,-0.39 -4.8,-0.39 z"
           inkscape:connector-curvature="0"
           style="fill:#000000;stroke-width:0" /><polygon
           id="polygon7058"
           points="1316.6,392.72 1316.6,305.42 1304.8,305.42 1304.8,303.08 1318.9,303.08 1318.9,392.72 "
           style="fill:#000000;stroke-width:0" /></g>    </g>
    <text
       xml:space="preserve"
       style="font-style:normal;font-weight:normal;font-size:40.04926682px;line-height:125%;font-family:sans-serif;letter-spacing:0px;word-spacing:0px;fill:#ff0000;fill-opacity:1;stroke:none;stroke-width:1px;stroke-linecap:butt;stroke-linejoin:miter;stroke-opacity:1"
       x="404.87274"
       y="736.03833"
       id="text8092-7-1-0"
       sodipodi:linespacing="125%"
       transform="scale(1.2317932,0.81182459)"
       inkscape:export-xdpi="90"
       inkscape:export-ydpi="90"><tspan
         sodipodi:role="line"
         id="tspan8094-5-5-8"
         x="404.87274"
         y="736.03833"
         style="font-style:normal;font-variant:normal;font-weight:normal;font-stretch:normal;font-family:'Arial Unicode MS';-inkscape-font-specification:'Arial Unicode MS'">x</tspan></text>
    <text
       xml:space="preserve"
       style="font-style:normal;font-weight:normal;font-size:40.04926682px;line-height:125%;font-family:sans-serif;letter-spacing:0px;word-spacing:0px;fill:#ff0000;fill-opacity:1;stroke:none;stroke-width:1px;stroke-linecap:butt;stroke-linejoin:miter;stroke-opacity:1"
       x="494.4115"
       y="820.52643"
       id="text8092-7-1"
       sodipodi:linespacing="125%"
       transform="scale(1.2317932,0.81182459)"
       inkscape:export-xdpi="90"
       inkscape:export-ydpi="90"><tspan
         sodipodi:role="line"
         id="tspan8094-5-5"
         x="494.4115"
         y="820.52643"
         style="font-style:normal;font-variant:normal;font-weight:normal;font-stretch:normal;font-family:'Arial Unicode MS';-inkscape-font-specification:'Arial Unicode MS'">x</tspan></text>
  </g>
</svg>
